Coordinates
version=1
nRows=7
nColumns=40
inDegrees=yes

Units are S.I. units (second, meters, Newtons, ...)
Angles are in degrees.

endheader
time	pelvis_tilt	pelvis_list	pelvis_rotation	pelvis_tx	pelvis_ty	pelvis_tz	hip_flexion_r	hip_adduction_r	hip_rotation_r	knee_angle_r	knee_angle_r_beta	ankle_angle_r	subtalar_angle_r	mtp_angle_r	hip_flexion_l	hip_adduction_l	hip_rotation_l	knee_angle_l	knee_angle_l_beta	ankle_angle_l	subtalar_angle_l	mtp_angle_l	lumbar_extension	lumbar_bending	lumbar_rotation	arm_flex_r	arm_add_r	arm_rot_r	elbow_flex_r	pro_sup_r	wrist_flex_r	wrist_dev_r	arm_flex_l	arm_add_l	arm_rot_l	elbow_flex_l	pro_sup_l	wrist_flex_l	wrist_dev_l
     28.45250000	     -3.96551644	     -4.24580654	      7.07439172	      0.96434674	      0.91665552	      0.51420639	     -2.47440745	      2.54014978	    -19.00594693	     16.60653500	     16.60653500	     18.98385370	     -4.08000464	     -2.42139579	     28.04516888	     -4.36221015	      3.00582673	     28.29263591	     28.29263591	      7.10091498	    -15.18969142	      3.65787111	     -7.88415046	      2.86090366	      5.24339984	     44.35718701	    -16.06935499	     -7.05054660	     81.67141964	     45.18978559	      0.00000000	      0.00000000	     -9.58965668	     -8.68348509	      5.05079961	     38.67888066	     45.29980264	      0.00000000	      0.00000000
     28.47085714	     -3.97578692	     -4.14786208	      6.72854188	      0.96594487	      0.91745326	      0.51024879	     -2.57467048	      1.92985512	    -18.92816336	     17.39002393	     17.39002393	     18.70974333	     -3.80295767	     -2.80823873	     27.58619282	     -4.12671495	      2.78881163	     28.62702350	     28.62702350	      8.34797836	    -15.14256755	      5.29686566	     -7.81423221	      2.79509761	      4.54434323	     44.64110089	    -15.05362555	     -6.49049751	     78.45350563	     45.28470971	      0.00000000	      0.00000000	     -9.62388519	     -8.44556778	      2.21207921	     40.42651540	     45.67156764	      0.00000000	      0.00000000
     28.48921429	     -3.99800358	     -4.09036691	      6.33164366	      0.96748917	      0.91826329	      0.50637884	     -2.45961251	      1.30329782	    -18.70120750	     18.52575121	     18.52575121	     18.44617448	     -3.70401048	     -3.10900308	     27.00216322	     -3.97725659	      2.45699411	     28.65092732	     28.65092732	      8.85117516	    -15.28566553	      5.22477263	     -7.74020423	      2.78833371	      4.95130167	     43.71566455	    -15.30749886	     -6.50577895	     77.05910773	     45.32810563	      0.00000000	      0.00000000	     -8.61317555	     -8.55554857	      1.76288887	     41.10746204	     45.74117299	      0.00000000	      0.00000000
     28.50757143	     -4.01143935	     -4.02002394	      5.93263635	      0.96891405	      0.91908475	      0.50246502	     -2.18410937	      0.58969737	    -18.51488493	     19.95932937	     19.95932937	     18.12481692	     -3.65355359	     -3.61887352	     26.38071404	     -3.81124494	      2.08909013	     28.60895096	     28.60895096	      9.35148674	    -15.37421140	      5.20641159	     -7.65997997	      2.79244634	      5.15562468	     42.81381268	    -15.35411355	     -6.58054220	     75.22985743	     45.38733616	      0.00000000	      0.00000000	     -7.66797532	     -8.73176404	      1.31930586	     41.89156907	     45.80884237	      0.00000000	      0.00000000
     28.52592857	     -3.96489219	     -3.91218736	      5.54318871	      0.97027258	      0.91995990	      0.49854091	     -1.77900341	     -0.20883327	    -18.23806684	     21.73418176	     21.73418176	     17.71972174	     -3.82087573	     -4.28438430	     25.67299579	     -3.62009179	      1.64601919	     28.52284931	     28.52284931	      9.83689355	    -15.38897119	      5.17333197	     -7.65694070	      2.75409860	      5.19630885	     41.82125909	    -15.32603446	     -6.65452721	     73.28984813	     45.44946144	      0.00000000	      0.00000000	     -6.72239731	     -8.96910969	      0.96615063	     42.65805076	     45.86510065	      0.00000000	      0.00000000
     28.54428571	     -3.69239875	     -4.17143596	      5.30448438	      0.97179892	      0.92119624	      0.49467223	     -1.72304980	     -0.49768764	    -18.06675118	     23.18860059	     23.18860059	     17.12451684	     -3.94534193	     -4.57122947	     24.79063159	     -3.76168950	      1.56744536	     28.45057179	     28.45057179	     10.30421505	    -15.44429558	      5.08602239	     -7.88705342	      3.23021902	      4.87534145	     40.40696936	    -14.96239661	     -6.52392491	     72.28251094	     45.47163729	      0.00000000	      0.00000000	     -5.69953326	     -9.27275192	      0.82216994	     43.13553542	     45.89566027	      0.00000000	      0.00000000
     28.56264286	     -3.83309472	     -3.82289091	      4.81027590	      0.97267260	      0.92149566	      0.49080475	     -0.49000015	     -1.71249532	    -17.39320466	     25.89918928	     25.89918928	     15.04739180	     -5.70403833	     -9.69427407	     24.27340634	     -3.33138552	      0.87637907	     28.36565971	     28.36565971	     10.96432605	    -15.34085514	      5.43957862	     -7.57796797	      2.87405420	      3.92342494	     41.04045789	    -13.81486478	     -6.60665159	     65.66998747	     45.67454335	      0.00000000	      0.00000000	     -5.64289780	     -9.80049975	     -0.22565206	     45.07776363	     46.04259671	      0.00000000	      0.00000000
